<svg id="Layer_1" data-name="Layer 1" xmlns="http://www.w3.org/2000/svg" viewBox="0 0 1440 900"><defs><style>.cls-1{fill:#cdb540;}.cls-2{fill:#428a41;}.cls-3{fill:#bc8237;}.cls-4,.cls-5{fill:#34190e;}.cls-4{opacity:0.11;isolation:isolate;}.cls-6{fill:#96875e;}</style></defs><title>DogHouse-01</title><polygon class="cls-1" points="996.97 639.81 980.29 617.57 1084.62 513.42 1224.28 637.71 1064.79 633.84 996.97 639.81"/><path class="cls-2" d="M400.26,853a110.88,110.88,0,0,1-97.45-57.91H251.43v69.4H469.67V853Z"/><rect class="cls-1" x="985.82" y="627.21" width="197.61" height="211.15"/><rect class="cls-3" x="1183.43" y="627.21" width="222.77" height="211.15"/><rect class="cls-4" x="985.82" y="627.21" width="420.38" height="35.09"/><rect class="cls-4" x="985.82" y="802.65" width="420.38" height="35.72"/><rect class="cls-4" x="985.82" y="709.08" width="420.38" height="46.79"/><path class="cls-5" d="M1121.26,724.12a44.54,44.54,0,0,0-44.52-43.28h0a44.54,44.54,0,0,0-44.52,43.32h0V838.41h89.11V724.12Z"/><rect class="cls-2" x="29.23" y="723.65" width="12.15" height="35.67" rx="6.07" ry="6.07"/><rect class="cls-2" x="47.93" y="723.65" width="12.15" height="35.67" rx="6.07" ry="6.07"/><rect class="cls-2" x="66.64" y="723.65" width="12.15" height="35.67" rx="6.07" ry="6.07"/><rect class="cls-2" x="434.6" y="823.65" width="13.81" height="40.56" rx="6.9" ry="6.9"/><rect class="cls-2" x="455.86" y="823.65" width="13.81" height="40.56" rx="6.9" ry="6.9"/><rect class="cls-2" x="477.13" y="823.65" width="13.81" height="40.56" rx="6.9" ry="6.9"/><rect class="cls-2" x="547.31" y="828.21" width="13.81" height="40.56" rx="6.9" ry="6.9"/><rect class="cls-2" x="568.58" y="828.21" width="13.81" height="40.56" rx="6.9" ry="6.9"/><rect class="cls-2" x="224.83" y="742.19" width="35.67" height="12.15" rx="6.07" ry="6.07" transform="translate(-458.03 390.75) rotate(-45)"/><rect class="cls-2" x="242.98" y="750.5" width="35.67" height="12.15" rx="6.07" ry="6.07" transform="translate(-458.58 406.02) rotate(-45)"/><rect class="cls-2" x="257.92" y="762.02" width="35.67" height="12.15" rx="6.07" ry="6.07" transform="translate(-462.35 419.96) rotate(-45)"/><rect class="cls-2" x="124.01" y="729.03" width="12.15" height="35.67" rx="6.07" ry="6.07"/><rect class="cls-2" x="142.72" y="729.03" width="12.15" height="35.67" rx="6.07" ry="6.07"/><rect class="cls-2" x="174.97" y="722.96" width="12.15" height="35.67" rx="6.07" ry="6.07"/><rect class="cls-2" x="283.31" y="805.07" width="35.67" height="12.15" rx="6.07" ry="6.07" transform="translate(-485.36 450.52) rotate(-45)"/><rect class="cls-2" x="296.54" y="818.3" width="35.67" height="12.15" rx="6.07" ry="6.07" transform="translate(-490.84 463.75) rotate(-45)"/><rect class="cls-2" x="321.14" y="842.91" width="35.67" height="12.15" rx="6.07" ry="6.07" transform="translate(-501.04 488.35) rotate(-45)"/><path class="cls-2" d="M792.37,864.22h0a6.13,6.13,0,0,1-6.13-6.13V834.35a6.13,6.13,0,0,1,6.13-6.13h0a6.13,6.13,0,0,1,6.13,6.13v23.74A6.13,6.13,0,0,1,792.37,864.22Z"/><path class="cls-2" d="M773.5,864.22h0a6.13,6.13,0,0,1-6.13-6.13V834.35a6.13,6.13,0,0,1,6.13-6.13h0a6.13,6.13,0,0,1,6.13,6.13v23.74A6.13,6.13,0,0,1,773.5,864.22Z"/><rect class="cls-2" x="716.89" y="823.65" width="13.81" height="40.56" rx="6.9" ry="6.9"/><rect class="cls-2" x="669.11" y="823.65" width="13.81" height="40.56" rx="6.9" ry="6.9"/><rect class="cls-2" x="625.43" y="828.22" width="13.81" height="40.56" rx="6.9" ry="6.9"/><rect class="cls-2" x="1212.75" y="823.65" width="13.81" height="40.56" rx="6.9" ry="6.9"/><rect class="cls-2" x="1191.48" y="823.65" width="13.81" height="40.56" rx="6.9" ry="6.9"/><rect class="cls-2" x="1170.21" y="823.65" width="13.81" height="40.56" rx="6.9" ry="6.9"/><rect class="cls-2" x="1100.03" y="828.22" width="13.81" height="40.56" rx="6.9" ry="6.9"/><rect class="cls-2" x="1078.77" y="828.22" width="13.81" height="40.56" rx="6.9" ry="6.9"/><path class="cls-2" d="M868.79,828.21h0a6.13,6.13,0,0,1,6.13,6.13v23.74a6.13,6.13,0,0,1-6.13,6.13h0a6.13,6.13,0,0,1-6.13-6.13V834.34A6.13,6.13,0,0,1,868.79,828.21Z"/><path class="cls-2" d="M887.66,828.21h0a6.13,6.13,0,0,1,6.13,6.13v23.74a6.13,6.13,0,0,1-6.13,6.13h0a6.13,6.13,0,0,1-6.13-6.13V834.34A6.13,6.13,0,0,1,887.66,828.21Z"/><rect class="cls-2" x="930.47" y="823.65" width="13.81" height="40.56" rx="6.9" ry="6.9"/><rect class="cls-2" x="978.24" y="823.65" width="13.81" height="40.56" rx="6.9" ry="6.9"/><rect class="cls-2" x="1021.92" y="828.21" width="13.81" height="40.56" rx="6.9" ry="6.9"/><rect class="cls-2" x="1294.8" y="815.79" width="13.81" height="40.56" rx="6.9" ry="6.9"/><rect class="cls-2" x="1316.07" y="815.79" width="13.81" height="40.56" rx="6.9" ry="6.9"/><rect class="cls-2" x="1277.73" y="828.22" width="13.81" height="40.56" rx="6.9" ry="6.9"/><rect class="cls-2" x="1371.71" y="807.94" width="13.81" height="40.56" rx="6.9" ry="6.9"/><rect class="cls-2" x="1342.06" y="815.79" width="13.81" height="40.56" rx="6.9" ry="6.9"/><path class="cls-2" d="M1440,803h-51.9a126.07,126.07,0,0,1-110.8,65.84h-78.91v13.06H1440Z"/><path class="cls-5" d="M1093.37,501.41h0a14.43,14.43,0,0,1,0,20.41L980.54,634.66a14.43,14.43,0,0,1-20.41,0h0a14.43,14.43,0,0,1,0-20.41L1073,501.41A14.43,14.43,0,0,1,1093.37,501.41Z"/><path class="cls-5" d="M1072.95,501.43h0a14.43,14.43,0,0,1,20.41,0l112.83,112.83a14.43,14.43,0,0,1,0,20.41h0a14.43,14.43,0,0,1-20.41,0L1072.95,521.84A14.43,14.43,0,0,1,1072.95,501.43Z"/><path class="cls-5" d="M1281.26,501.42h0a14.43,14.43,0,0,1,20.41,0l112.83,112.83a14.43,14.43,0,0,1,0,20.41h0a14.43,14.43,0,0,1-20.41,0L1281.26,521.83A14.43,14.43,0,0,1,1281.26,501.42Z"/><path class="cls-5" d="M1095.54,501.43h0a14.43,14.43,0,0,1,20.41,0l112.83,112.83a14.43,14.43,0,0,1,0,20.41h0a14.43,14.43,0,0,1-20.41,0L1095.54,521.84A14.43,14.43,0,0,1,1095.54,501.43Z"/><path class="cls-5" d="M1117.74,501.42h0a14.43,14.43,0,0,1,20.41,0L1251,614.25a14.43,14.43,0,0,1,0,20.41h0a14.43,14.43,0,0,1-20.41,0L1117.74,521.84A14.43,14.43,0,0,1,1117.74,501.42Z"/><path class="cls-5" d="M1142.32,501.42h0a14.43,14.43,0,0,1,20.41,0l112.83,112.83a14.43,14.43,0,0,1,0,20.41h0a14.43,14.43,0,0,1-20.41,0L1142.32,521.83A14.43,14.43,0,0,1,1142.32,501.42Z"/><path class="cls-5" d="M1164.51,501.42h0a14.43,14.43,0,0,1,20.41,0l112.83,112.83a14.43,14.43,0,0,1,0,20.41h0a14.43,14.43,0,0,1-20.41,0L1164.51,521.83A14.43,14.43,0,0,1,1164.51,501.42Z"/><path class="cls-5" d="M1189,501.42h0a14.43,14.43,0,0,1,20.41,0l112.83,112.83a14.43,14.43,0,0,1,0,20.41h0a14.43,14.43,0,0,1-20.41,0L1189,521.84A14.43,14.43,0,0,1,1189,501.42Z"/><path class="cls-5" d="M1211.19,501.42h0a14.43,14.43,0,0,1,20.41,0l112.83,112.83a14.43,14.43,0,0,1,0,20.41h0a14.43,14.43,0,0,1-20.41,0L1211.19,521.83A14.43,14.43,0,0,1,1211.19,501.42Z"/><path class="cls-5" d="M1235.75,501.42h0a14.43,14.43,0,0,1,20.41,0L1369,614.25a14.43,14.43,0,0,1,0,20.41h0a14.43,14.43,0,0,1-20.41,0L1235.75,521.83A14.43,14.43,0,0,1,1235.75,501.42Z"/><path class="cls-5" d="M1258,501.41h0a14.43,14.43,0,0,1,20.41,0L1391.2,614.24a14.43,14.43,0,0,1,0,20.41h0a14.43,14.43,0,0,1-20.41,0L1258,521.83A14.43,14.43,0,0,1,1258,501.41Z"/><rect class="cls-5" x="1084.62" y="497.27" width="206.42" height="20.71"/><rect class="cls-4" x="1015.31" y="561.53" width="273.12" height="32.63"/><rect class="cls-3" x="1030.03" y="617.93" width="104.6" height="33.93" rx="6.21" ry="6.21"/><rect class="cls-5" x="1024.44" y="617.93" width="104.6" height="33.93" rx="6.21" ry="6.21"/><circle class="cls-6" cx="1030.99" cy="625.68" r="2.53"/><circle class="cls-6" cx="1030.99" cy="644.1" r="2.53"/><circle class="cls-6" cx="1120.1" cy="625.68" r="2.53"/><circle class="cls-6" cx="1120.1" cy="644.1" r="2.53"/><path class="cls-6" d="M1056.47,634.16a1.52,1.52,0,0,1,0,3h-6.69c-.21,0-.28.06-.28.28v7.91c0,1.09-.85,1.37-1.61,1.37s-1.61-.28-1.61-1.37V626.84a1.35,1.35,0,0,1,1.32-1.38h11a1.52,1.52,0,0,1,0,3h-8.82c-.21,0-.28.06-.28.28v5.11c0,.21.06.28.28.28Z"/><path class="cls-6" d="M1063.31,626.71c0-1.09.85-1.37,1.61-1.37s1.61.28,1.61,1.37v18.68c0,1.09-.85,1.37-1.61,1.37s-1.61-.28-1.61-1.37Z"/><path class="cls-6" d="M1079.22,625.47a7.18,7.18,0,0,1,6.17,2.71c1.18,1.58,1.46,4.2,1.46,7.87s-.28,6.29-1.46,7.87a7.21,7.21,0,0,1-6.17,2.71h-6a1.35,1.35,0,0,1-1.52-1.37V626.84a1.35,1.35,0,0,1,1.32-1.38h6.19Zm0,18.13c1.43,0,3-.18,3.7-1.76.61-1.4.64-3.2.64-5.78s0-4.38-.64-5.75c-.7-1.58-2.25-1.79-3.7-1.79h-4c-.21,0-.28.06-.28.28v14.54c0,.21.06.28.28.28Z"/><path class="cls-6" d="M1103.86,644.05c-1.61,2.13-4,2.71-6.33,2.71a7.5,7.5,0,0,1-6.33-2.71c-1.22-1.58-1.46-4.32-1.46-8s.24-6.41,1.46-8a7.5,7.5,0,0,1,6.33-2.71c2.35,0,4.71.58,6.33,2.71,1.18,1.58,1.46,4.32,1.46,8S1105.07,642.46,1103.86,644.05ZM1093.7,642c.76,1.58,2.37,1.76,3.84,1.76s3.13-.18,3.84-1.76c.64-1.4.64-3.32.64-5.9s0-4.5-.64-5.87c-.73-1.58-2.34-1.79-3.84-1.79s-3.07.21-3.84,1.79c-.64,1.37-.64,3.32-.64,5.87s0,4.53.64,5.9Z"/><rect class="cls-2" y="838.41" width="1440" height="61.59"/><path class="cls-2" d="M1440,900V752.12A126.17,126.17,0,0,0,1376.89,900Z"/><path class="cls-2" d="M304.81,900a110.94,110.94,0,0,0-98.5-161.93H0V900Z"/></svg>